<svg version="1.1" id="Layer_1" xmlns="http://www.w3.org/2000/svg" x="0" y="0" viewBox="0 0 165.3 53.6" xml:space="preserve"><style type="text/css">.st0{fill:#005c21}.st1{fill:#52ae32}</style><path class="st0" d="M158.3.3l-6.8 7.6-.4-7.2-5.4.3-15.9 17.7 1.5 27.5 16.7-.9 15.8-17.6h.1L162.4.6z"/><path class="st0" d="M165.3 27.6l-18.2 1-15.8 17.6 18.1-1z"/><path class="st1" d="M165.3 27.6L163.7 0l-5.4.3 1.2 22.2-7.1.4L151.1.7l-5.4.3 1.5 27.6z"/><path class="st0" d="M139 28.1l.7-.9-.9-23.5-2.2-2.2-14.6.9L106.3 20l1.5 27.6 14.6-.9z"/><path class="st0" d="M138.1 29.1l-14.6.8-15.8 17.7 14.6-.9z"/><path class="st1" d="M128.7 24.2l-.9-16.6 7.5-.4.9 16.6-7.5.4zm13 .9l-1.1-19.9-4-3.7-14.6.9 1.5 27.6 5.4-.3 9.2-.5 3.6-4.1z"/><path class="st0" d="M99.8 3.6l-5.2 5.9-10.5 11.3 1.5 28 16.5-.9L118 30.2v.1l-1.5-27.6z"/><path class="st1" d="M111.6 8.5l.3 5.6-6.1.3-.3-5.6 6.1-.3zm6.3 21.7l-.3-5.4-11.1.6-.3-5.6 11.5-.6-.9-16.5-17 1v.6l1.5 26.9 16.6-1z"/><path class="st0" d="M118 30.2l-16.6 1-15.8 17.6 16.5-.9zM77.4 4.9L61.7 22.5l1.5 27.6 16.5-1 16.1-17.7-.9-22-.3-5.5z"/><path class="st0" d="M95.9 31.4l-17 1-15.6 17.7 16.7-1z"/><path class="st1" d="M95.9 31.4L95 15l-5.5.3-6.1.3-.3-5.5 11.8-.7-.3-5.5-11.8.7-5.4.3.3 5.5.3 5.5.3 5.5 11.5-.7.3 5.6-11.5.6.3 5.5 11.5-.7z"/><path class="st0" d="M55.4 6.1L39.5 23.7 41 51.3l16.5-.9 15.8-17.7h.1L72.2 5.2z"/><path class="st0" d="M73.5 32.7l-16.6.9L41 51.3l16.6-.9z"/><path class="st1" d="M67.2 10.9l.3 5.6-6.1.3-.3-5.6 6.1-.3zm6.3 21.8l-.3-5.4-11.1.6-.3-5.6 11.3-.6-.9-16.5-16.8 1v.6l1.5 26.8 16.6-.9z"/><path class="st0" d="M17.4 4L0 22.8l1.7 30.8L28.8 52l15.3-17.4.1.3-.8-32.3z"/><path class="st0" d="M45 34.5l-26 1.4L1.7 53.6 28.8 52z"/><path class="st1" d="M25 29.2L24 10l13.4-.7.4 8.4-2.8.2-.2-3.8-6.3.3.5 10.1 15.5-.8-1.1-21.1-26 1.4L19 35.9l26-1.4-.3-6.3z"/></svg>